<svg width="153" height="59" viewBox="0 0 153 59" fill="none" xmlns="http://www.w3.org/2000/svg">
<path d="M50.4205 25H45.2642V10.4545H50.4631C51.9261 10.4545 53.1856 10.7457 54.2415 11.3281C55.2973 11.9058 56.1094 12.7367 56.6776 13.821C57.2505 14.9053 57.5369 16.2027 57.5369 17.7131C57.5369 19.2282 57.2505 20.5303 56.6776 21.6193C56.1094 22.7083 55.2926 23.544 54.2273 24.1264C53.1667 24.7088 51.8977 25 50.4205 25ZM48.3395 22.3651H50.2926C51.2017 22.3651 51.9664 22.2041 52.5866 21.8821C53.2116 21.5554 53.6804 21.0511 53.9929 20.3693C54.3101 19.6828 54.4688 18.7973 54.4688 17.7131C54.4688 16.6383 54.3101 15.7599 53.9929 15.0781C53.6804 14.3963 53.214 13.8944 52.5938 13.5724C51.9735 13.2505 51.2088 13.0895 50.2997 13.0895H48.3395V22.3651ZM59.6587 25V23.1747L66.9173 12.9901H59.6445V10.4545H70.7809V12.2798L63.5153 22.4645H70.7951V25H59.6587ZM45.2642 49V34.4545H51.0028C52.1013 34.4545 53.0388 34.651 53.8153 35.044C54.5966 35.4323 55.1908 35.9839 55.598 36.6989C56.0099 37.4091 56.2159 38.2448 56.2159 39.206C56.2159 40.1719 56.0076 41.0028 55.5909 41.6989C55.1742 42.3902 54.5705 42.9205 53.7798 43.2898C52.9938 43.6591 52.0421 43.8438 50.9247 43.8438H47.0824V41.3722H50.4276C51.0147 41.3722 51.5024 41.2917 51.8906 41.1307C52.2789 40.9697 52.5677 40.7282 52.7571 40.4062C52.9512 40.0843 53.0483 39.6842 53.0483 39.206C53.0483 38.723 52.9512 38.3158 52.7571 37.9844C52.5677 37.6529 52.2765 37.402 51.8835 37.2315C51.4953 37.0563 51.0052 36.9688 50.4134 36.9688H48.3395V49H45.2642ZM53.1193 42.3807L56.7344 49H53.3395L49.8026 42.3807H53.1193ZM63.0856 49.2131C61.9824 49.2131 61.0283 48.9787 60.2234 48.5099C59.4232 48.0365 58.8053 47.3783 58.3697 46.5355C57.9341 45.688 57.7163 44.7055 57.7163 43.5881C57.7163 42.4612 57.9341 41.4763 58.3697 40.6335C58.8053 39.786 59.4232 39.1278 60.2234 38.6591C61.0283 38.1856 61.9824 37.9489 63.0856 37.9489C64.1888 37.9489 65.1405 38.1856 65.9407 38.6591C66.7456 39.1278 67.3659 39.786 67.8015 40.6335C68.2371 41.4763 68.4549 42.4612 68.4549 43.5881C68.4549 44.7055 68.2371 45.688 67.8015 46.5355C67.3659 47.3783 66.7456 48.0365 65.9407 48.5099C65.1405 48.9787 64.1888 49.2131 63.0856 49.2131ZM63.0998 46.8693C63.6017 46.8693 64.0207 46.7273 64.3569 46.4432C64.6931 46.1544 64.9464 45.7614 65.1168 45.2642C65.292 44.767 65.3796 44.2012 65.3796 43.5668C65.3796 42.9323 65.292 42.3665 65.1168 41.8693C64.9464 41.3722 64.6931 40.9792 64.3569 40.6903C64.0207 40.4015 63.6017 40.2571 63.0998 40.2571C62.5932 40.2571 62.167 40.4015 61.8214 40.6903C61.4805 40.9792 61.2224 41.3722 61.0472 41.8693C60.8768 42.3665 60.7915 42.9323 60.7915 43.5668C60.7915 44.2012 60.8768 44.767 61.0472 45.2642C61.2224 45.7614 61.4805 46.1544 61.8214 46.4432C62.167 46.7273 62.5932 46.8693 63.0998 46.8693ZM73.533 49.206C72.837 49.206 72.2167 49.0852 71.6722 48.8438C71.1277 48.5975 70.6969 48.2353 70.3796 47.7571C70.0671 47.2741 69.9109 46.6728 69.9109 45.9531C69.9109 45.3471 70.0221 44.8381 70.2447 44.4261C70.4672 44.0142 70.7702 43.6828 71.1538 43.4318C71.5373 43.1809 71.9729 42.9915 72.4606 42.8636C72.953 42.7358 73.4691 42.6458 74.0089 42.5938C74.6433 42.5275 75.1547 42.4659 75.543 42.4091C75.9312 42.3475 76.213 42.2576 76.3881 42.1392C76.5633 42.0208 76.6509 41.8456 76.6509 41.6136V41.571C76.6509 41.1212 76.5089 40.7732 76.2248 40.527C75.9454 40.2808 75.5477 40.1577 75.0316 40.1577C74.4871 40.1577 74.0539 40.2784 73.7319 40.5199C73.4099 40.7566 73.1969 41.0549 73.0927 41.4148L70.2944 41.1875C70.4364 40.5246 70.7158 39.9517 71.1325 39.4688C71.5491 38.9811 72.0865 38.607 72.7447 38.3466C73.4076 38.0814 74.1746 37.9489 75.0458 37.9489C75.6519 37.9489 76.2319 38.0199 76.7859 38.1619C77.3446 38.304 77.8394 38.5241 78.2702 38.8224C78.7058 39.1207 79.0491 39.5043 79.3001 39.973C79.551 40.437 79.6765 40.9934 79.6765 41.642V49H76.8072V47.4872H76.7219C76.5468 47.8281 76.3124 48.1288 76.0188 48.3892C75.7253 48.6449 75.3725 48.8461 74.9606 48.9929C74.5487 49.1349 74.0728 49.206 73.533 49.206ZM74.3995 47.1179C74.8446 47.1179 75.2376 47.0303 75.5785 46.8551C75.9194 46.6752 76.1869 46.4337 76.381 46.1307C76.5752 45.8277 76.6722 45.4844 76.6722 45.1009V43.9432C76.5775 44.0047 76.4473 44.0616 76.2816 44.1136C76.1206 44.161 75.9383 44.206 75.7347 44.2486C75.5311 44.2865 75.3275 44.322 75.1239 44.3551C74.9203 44.3835 74.7357 44.4096 74.57 44.4332C74.2148 44.4853 73.9047 44.5682 73.6396 44.6818C73.3744 44.7955 73.1684 44.9493 73.0217 45.1435C72.8749 45.3329 72.8015 45.5696 72.8015 45.8537C72.8015 46.2656 72.9506 46.5805 73.2489 46.7983C73.552 47.0114 73.9355 47.1179 74.3995 47.1179ZM86.0437 49.1776C85.2151 49.1776 84.4646 48.9645 83.7923 48.5384C83.1246 48.1075 82.5943 47.4754 82.2013 46.642C81.8131 45.804 81.619 44.7765 81.619 43.5597C81.619 42.3097 81.8202 41.2704 82.2227 40.4418C82.6251 39.6084 83.1602 38.9858 83.8278 38.5739C84.5001 38.1572 85.2364 37.9489 86.0366 37.9489C86.6474 37.9489 87.1564 38.053 87.5636 38.2614C87.9755 38.465 88.3069 38.7206 88.5579 39.0284C88.8136 39.3314 89.0077 39.6297 89.1403 39.9233H89.2326V34.4545H92.2511V49H89.2681V47.2528H89.1403C88.9982 47.5559 88.797 47.8565 88.5366 48.1548C88.2809 48.4484 87.9471 48.6922 87.5352 48.8864C87.128 49.0805 86.6308 49.1776 86.0437 49.1776ZM87.0025 46.7699C87.4902 46.7699 87.9021 46.6373 88.2383 46.3722C88.5792 46.1023 88.8396 45.7259 89.0195 45.2429C89.2042 44.7599 89.2965 44.1941 89.2965 43.5455C89.2965 42.8968 89.2066 42.3333 89.0266 41.8551C88.8467 41.3769 88.5863 41.0076 88.2454 40.7472C87.9045 40.4867 87.4902 40.3565 87.0025 40.3565C86.5053 40.3565 86.0863 40.4915 85.7454 40.7614C85.4045 41.0312 85.1464 41.4053 84.9712 41.8835C84.796 42.3617 84.7085 42.9157 84.7085 43.5455C84.7085 44.1799 84.796 44.741 84.9712 45.2287C85.1512 45.7116 85.4092 46.0904 85.7454 46.3651C86.0863 46.6349 86.5053 46.7699 87.0025 46.7699ZM102.686 38.6378C102.629 38.0649 102.385 37.6198 101.955 37.3026C101.524 36.9853 100.939 36.8267 100.2 36.8267C99.6984 36.8267 99.2746 36.8977 98.929 37.0398C98.5833 37.1771 98.3182 37.3688 98.1335 37.6151C97.9536 37.8613 97.8636 38.1406 97.8636 38.4531C97.8542 38.7135 97.9086 38.9408 98.027 39.1349C98.1501 39.3291 98.3182 39.4972 98.5312 39.6392C98.7443 39.7765 98.9905 39.8973 99.2699 40.0014C99.5492 40.1009 99.8475 40.1861 100.165 40.2571L101.472 40.5696C102.106 40.7116 102.688 40.901 103.219 41.1378C103.749 41.3745 104.208 41.6657 104.597 42.0114C104.985 42.357 105.286 42.7642 105.499 43.233C105.716 43.7017 105.828 44.2391 105.832 44.8452C105.828 45.7353 105.6 46.5071 105.151 47.1605C104.705 47.8092 104.062 48.3134 103.219 48.6733C102.381 49.0284 101.37 49.206 100.186 49.206C99.0118 49.206 97.9891 49.026 97.1179 48.6662C96.2514 48.3063 95.5743 47.7737 95.0866 47.0682C94.6037 46.358 94.3504 45.4796 94.3267 44.4332H97.3026C97.3357 44.9209 97.4754 45.3281 97.7216 45.6548C97.9725 45.9768 98.3063 46.2206 98.723 46.3864C99.1444 46.5473 99.6203 46.6278 100.151 46.6278C100.671 46.6278 101.124 46.5521 101.507 46.4006C101.895 46.2491 102.196 46.0384 102.409 45.7685C102.622 45.4986 102.729 45.1884 102.729 44.8381C102.729 44.5114 102.632 44.2367 102.438 44.0142C102.248 43.7917 101.969 43.6023 101.599 43.446C101.235 43.2898 100.787 43.1477 100.257 43.0199L98.6733 42.6222C97.447 42.3239 96.4787 41.8575 95.7685 41.223C95.0582 40.5885 94.7055 39.7339 94.7102 38.6591C94.7055 37.7784 94.9399 37.009 95.4134 36.3509C95.8916 35.6927 96.5473 35.179 97.3807 34.8097C98.214 34.4403 99.161 34.2557 100.222 34.2557C101.301 34.2557 102.243 34.4403 103.048 34.8097C103.858 35.179 104.488 35.6927 104.938 36.3509C105.387 37.009 105.619 37.7713 105.634 38.6378H102.686ZM110.955 49.206C110.259 49.206 109.639 49.0852 109.094 48.8438C108.55 48.5975 108.119 48.2353 107.801 47.7571C107.489 47.2741 107.333 46.6728 107.333 45.9531C107.333 45.3471 107.444 44.8381 107.667 44.4261C107.889 44.0142 108.192 43.6828 108.576 43.4318C108.959 43.1809 109.395 42.9915 109.882 42.8636C110.375 42.7358 110.891 42.6458 111.431 42.5938C112.065 42.5275 112.577 42.4659 112.965 42.4091C113.353 42.3475 113.635 42.2576 113.81 42.1392C113.985 42.0208 114.073 41.8456 114.073 41.6136V41.571C114.073 41.1212 113.931 40.7732 113.647 40.527C113.367 40.2808 112.97 40.1577 112.453 40.1577C111.909 40.1577 111.476 40.2784 111.154 40.5199C110.832 40.7566 110.619 41.0549 110.515 41.4148L107.716 41.1875C107.858 40.5246 108.138 39.9517 108.554 39.4688C108.971 38.9811 109.508 38.607 110.167 38.3466C110.829 38.0814 111.596 37.9489 112.468 37.9489C113.074 37.9489 113.654 38.0199 114.208 38.1619C114.766 38.304 115.261 38.5241 115.692 38.8224C116.128 39.1207 116.471 39.5043 116.722 39.973C116.973 40.437 117.098 40.9934 117.098 41.642V49H114.229V47.4872H114.144C113.969 47.8281 113.734 48.1288 113.441 48.3892C113.147 48.6449 112.794 48.8461 112.382 48.9929C111.971 49.1349 111.495 49.206 110.955 49.206ZM111.821 47.1179C112.266 47.1179 112.659 47.0303 113 46.8551C113.341 46.6752 113.609 46.4337 113.803 46.1307C113.997 45.8277 114.094 45.4844 114.094 45.1009V43.9432C113.999 44.0047 113.869 44.0616 113.703 44.1136C113.542 44.161 113.36 44.206 113.157 44.2486C112.953 44.2865 112.749 44.322 112.546 44.3551C112.342 44.3835 112.158 44.4096 111.992 44.4332C111.637 44.4853 111.327 44.5682 111.061 44.6818C110.796 44.7955 110.59 44.9493 110.444 45.1435C110.297 45.3329 110.223 45.5696 110.223 45.8537C110.223 46.2656 110.373 46.5805 110.671 46.7983C110.974 47.0114 111.357 47.1179 111.821 47.1179ZM125.312 38.0909V40.3636H118.579V38.0909H125.312ZM120.12 49V37.3026C120.12 36.5118 120.274 35.8561 120.582 35.3352C120.895 34.8144 121.321 34.4238 121.86 34.1634C122.4 33.9029 123.013 33.7727 123.7 33.7727C124.164 33.7727 124.588 33.8082 124.971 33.8793C125.359 33.9503 125.648 34.0142 125.838 34.071L125.298 36.3438C125.18 36.3059 125.033 36.2704 124.858 36.2372C124.687 36.2041 124.512 36.1875 124.332 36.1875C123.887 36.1875 123.577 36.2917 123.402 36.5C123.226 36.7036 123.139 36.9901 123.139 37.3594V49H120.12ZM131.741 49.2131C130.619 49.2131 129.653 48.9858 128.844 48.5312C128.039 48.072 127.419 47.4233 126.983 46.5852C126.547 45.7424 126.33 44.7457 126.33 43.5952C126.33 42.473 126.547 41.4882 126.983 40.6406C127.419 39.7931 128.032 39.1326 128.822 38.6591C129.618 38.1856 130.551 37.9489 131.621 37.9489C132.34 37.9489 133.01 38.0649 133.631 38.2969C134.256 38.5241 134.8 38.8674 135.264 39.3267C135.733 39.786 136.098 40.3636 136.358 41.0597C136.618 41.7509 136.749 42.5606 136.749 43.4886V44.3196H127.537V42.4446H133.901C133.901 42.009 133.806 41.6231 133.616 41.2869C133.427 40.9508 133.164 40.688 132.828 40.4986C132.497 40.3045 132.111 40.2074 131.67 40.2074C131.211 40.2074 130.804 40.3139 130.449 40.527C130.098 40.7353 129.824 41.017 129.625 41.3722C129.426 41.7225 129.324 42.1132 129.32 42.544V44.3267C129.32 44.8665 129.419 45.3329 129.618 45.7259C129.821 46.1188 130.108 46.4219 130.477 46.6349C130.847 46.848 131.285 46.9545 131.791 46.9545C132.127 46.9545 132.435 46.9072 132.714 46.8125C132.994 46.7178 133.233 46.5758 133.432 46.3864C133.631 46.197 133.782 45.965 133.886 45.6903L136.685 45.875C136.543 46.5473 136.251 47.1345 135.811 47.6364C135.375 48.1335 134.812 48.5218 134.121 48.8011C133.434 49.0758 132.641 49.2131 131.741 49.2131Z" fill="black"/>
<path d="M34.2147 23.0333C34.2147 18.5158 32.272 14.1833 29.0776 10.9889C25.8833 7.79457 21.5508 6 17.0333 6C12.5158 6 8.18329 7.79457 4.98893 10.9889C1.79457 14.1833 6.82124e-07 18.5158 0 23.0333L5.33216 22.1446C5.33216 19.0466 6.58292 16.9642 8.77354 14.7735C10.9642 12.5829 13.9353 11.3522 17.0333 11.3522C20.1313 11.3522 23.1024 12.5829 25.293 14.7735C27.4836 16.9642 28.7344 19.0466 28.7344 22.1446L34.2147 23.0333Z" fill="black"/>
<path d="M26.6608 23.0333C26.6608 28.3504 22.3504 32.6608 17.0333 32.6608C11.7161 32.6608 7.40576 28.3504 7.40576 23.0333C7.40576 17.7161 11.7161 13.4058 17.0333 13.4058C22.3504 13.4058 26.6608 17.7161 26.6608 23.0333ZM10.4309 23.0333C10.4309 26.4799 13.072 29.3098 16.4408 29.6094C16.49 29.6137 16.5394 29.6176 16.5889 29.6209C16.7358 29.6306 16.8839 29.6356 17.0333 29.6356C17.1826 29.6356 17.3308 29.6306 17.4776 29.6209C17.6777 29.6076 17.8753 29.5854 18.0701 29.5546C21.2239 29.0572 23.6356 26.3269 23.6356 23.0333C23.6356 22.1416 23.4588 21.2913 23.1385 20.5153C22.1487 18.118 19.788 16.4309 17.0333 16.4309C14.2785 16.4309 11.9179 18.118 10.9281 20.5153C10.6077 21.2913 10.4309 22.1416 10.4309 23.0333Z" fill="#939393"/>
<path d="M23.6356 23.0333C23.6356 22.1416 23.4588 21.2913 23.1385 20.5153H10.9281C10.6077 21.2913 10.4309 22.1416 10.4309 23.0333C14.3953 23.9864 15.8403 25.2975 16.4408 29.6094C16.49 29.6137 16.5394 29.6176 16.5889 29.6209C16.7358 29.6306 16.8839 29.6356 17.0333 29.6356C17.1826 29.6356 17.3308 29.6306 17.4776 29.6209C17.6777 29.6076 17.8753 29.5854 18.0701 29.5546C18.3447 25.4515 19.5936 24.0448 23.6356 23.0333Z" fill="#939393"/>
<path d="M18.1599 51.6195C18.1542 51.6172 18.1484 51.6147 18.1425 51.6121L18.3343 51.6965C18.3829 51.675 18.4361 51.6522 18.4942 51.628C18.4027 51.6225 18.2921 51.6195 18.1599 51.6195Z" fill="#FFD600"/>
<path fill-rule="evenodd" clip-rule="evenodd" d="M32.77 29.5516C33.626 27.485 34.0666 26.1588 34.0666 23.922L28.7148 23.0333C28.7148 24.5673 28.4126 26.0863 27.8256 27.5036C27.2385 28.9208 26.3781 30.2086 25.2934 31.2933C24.2086 32.378 22.9209 33.2384 21.5036 33.8255C20.0864 34.4125 18.5674 34.7147 17.0334 34.7147C15.4993 34.7147 13.9803 34.4125 12.5631 33.8255C11.1458 33.2384 9.85806 32.378 8.77334 31.2933C7.68862 30.2086 6.82817 28.9208 6.24113 27.5036C5.65408 26.0863 5.35193 24.5673 5.35193 23.0333L0.148193 23.922C0.148193 26.1588 0.440656 27.485 1.29666 29.5516C2.15266 31.6182 4.14731 35.3268 5.35193 36.9561C6.55321 38.5809 16.0404 50.6959 18.1425 51.6121C18.1484 51.6147 18.1542 51.6172 18.1599 51.6195C18.2921 51.6195 18.4027 51.6225 18.4942 51.628C18.4361 51.6522 18.3829 51.675 18.3343 51.6965L18.4942 51.628L18.5145 51.6195C20.5811 50.7635 28.142 39.0297 29.3269 36.9561C30.5119 34.8825 31.914 31.6182 32.77 29.5516Z" fill="#FFD600"/>
</svg>
