<svg width="129" height="56" viewBox="0 0 129 56" fill="none" xmlns="http://www.w3.org/2000/svg">
<path d="M7.98864 21H0.769886V0.636363H8.0483C10.0966 0.636363 11.8598 1.04403 13.3381 1.85938C14.8163 2.66809 15.9531 3.83144 16.7486 5.34943C17.5507 6.86742 17.9517 8.68371 17.9517 10.7983C17.9517 12.9195 17.5507 14.7424 16.7486 16.267C15.9531 17.7917 14.8097 18.9616 13.3182 19.777C11.8333 20.5923 10.0568 21 7.98864 21ZM5.07528 17.3111H7.80966C9.08239 17.3111 10.1529 17.0857 11.0213 16.6349C11.8963 16.1776 12.5526 15.4716 12.9901 14.517C13.4342 13.5559 13.6562 12.3163 13.6562 10.7983C13.6562 9.29356 13.4342 8.06392 12.9901 7.10938C12.5526 6.15483 11.8996 5.45218 11.0312 5.00142C10.1629 4.55066 9.09233 4.32528 7.8196 4.32528H5.07528V17.3111ZM20.9222 21V18.4446L31.0842 4.18608H20.9023V0.636363H36.4933V3.19176L26.3214 17.4503H36.5131V21H20.9222Z" fill="black"/>
<path d="M0.769886 55V34.6364H8.80398C10.3419 34.6364 11.6544 34.9115 12.7415 35.4616C13.8352 36.0052 14.6671 36.7775 15.2372 37.7784C15.8139 38.7727 16.1023 39.9427 16.1023 41.2884C16.1023 42.6406 15.8106 43.804 15.2273 44.7784C14.6439 45.7462 13.7988 46.4886 12.6918 47.0057C11.5914 47.5227 10.259 47.7812 8.6946 47.7812H3.31534V44.321H7.99858C8.82055 44.321 9.50331 44.2083 10.0469 43.983C10.5904 43.7576 10.9948 43.4195 11.2599 42.9688C11.5317 42.518 11.6676 41.9579 11.6676 41.2884C11.6676 40.6122 11.5317 40.0421 11.2599 39.5781C10.9948 39.1141 10.5871 38.7628 10.0369 38.5241C9.49337 38.2789 8.80729 38.1562 7.97869 38.1562H5.07528V55H0.769886ZM11.767 45.733L16.8281 55H12.0753L7.12358 45.733H11.767ZM25.7198 55.2983C24.1753 55.2983 22.8396 54.9702 21.7127 54.3139C20.5924 53.651 19.7274 52.7296 19.1175 51.5497C18.5077 50.3632 18.2028 48.9877 18.2028 47.4233C18.2028 45.8456 18.5077 44.4669 19.1175 43.2869C19.7274 42.1004 20.5924 41.179 21.7127 40.5227C22.8396 39.8598 24.1753 39.5284 25.7198 39.5284C27.2643 39.5284 28.5967 39.8598 29.717 40.5227C30.8439 41.179 31.7122 42.1004 32.3221 43.2869C32.9319 44.4669 33.2369 45.8456 33.2369 47.4233C33.2369 48.9877 32.9319 50.3632 32.3221 51.5497C31.7122 52.7296 30.8439 53.651 29.717 54.3139C28.5967 54.9702 27.2643 55.2983 25.7198 55.2983ZM25.7397 52.017C26.4424 52.017 27.029 51.8182 27.4996 51.4205C27.9703 51.0161 28.3249 50.4659 28.5636 49.7699C28.8088 49.0739 28.9315 48.2817 28.9315 47.3935C28.9315 46.5052 28.8088 45.7131 28.5636 45.017C28.3249 44.321 27.9703 43.7708 27.4996 43.3665C27.029 42.9621 26.4424 42.7599 25.7397 42.7599C25.0304 42.7599 24.4338 42.9621 23.9499 43.3665C23.4727 43.7708 23.1114 44.321 22.8661 45.017C22.6275 45.7131 22.5082 46.5052 22.5082 47.3935C22.5082 48.2817 22.6275 49.0739 22.8661 49.7699C23.1114 50.4659 23.4727 51.0161 23.9499 51.4205C24.4338 51.8182 25.0304 52.017 25.7397 52.017ZM40.3462 55.2884C39.3718 55.2884 38.5034 55.1193 37.7411 54.7812C36.9788 54.4366 36.3756 53.9295 35.9315 53.2599C35.494 52.5838 35.2752 51.742 35.2752 50.7344C35.2752 49.8859 35.431 49.1733 35.7425 48.5966C36.0541 48.0199 36.4783 47.5559 37.0153 47.2045C37.5522 46.8532 38.1621 46.5881 38.8448 46.4091C39.5342 46.2301 40.2567 46.1042 41.0124 46.0312C41.9007 45.9384 42.6166 45.8523 43.1602 45.7727C43.7037 45.6866 44.0981 45.5606 44.3434 45.3949C44.5887 45.2292 44.7113 44.9839 44.7113 44.6591V44.5994C44.7113 43.9697 44.5124 43.4825 44.1147 43.1378C43.7236 42.7931 43.1668 42.6207 42.4442 42.6207C41.6819 42.6207 41.0754 42.7898 40.6246 43.1278C40.1739 43.4593 39.8756 43.8769 39.7298 44.3807L35.8121 44.0625C36.011 43.1345 36.4021 42.3324 36.9854 41.6562C37.5688 40.9735 38.3211 40.4498 39.2425 40.0852C40.1706 39.714 41.2444 39.5284 42.4641 39.5284C43.3126 39.5284 44.1246 39.6278 44.9002 39.8267C45.6824 40.0256 46.3751 40.3338 46.9783 40.7514C47.5882 41.169 48.0688 41.706 48.4201 42.3622C48.7714 43.0118 48.9471 43.7907 48.9471 44.6989V55H44.93V52.8821H44.8107C44.5655 53.3594 44.2373 53.7803 43.8263 54.1449C43.4154 54.5028 42.9215 54.7846 42.3448 54.9901C41.7681 55.1889 41.1019 55.2884 40.3462 55.2884ZM41.5593 52.3651C42.1824 52.3651 42.7326 52.2424 43.2099 51.9972C43.6871 51.7453 44.0617 51.4072 44.3335 50.983C44.6052 50.5587 44.7411 50.0781 44.7411 49.5412V47.9205C44.6085 48.0066 44.4263 48.0862 44.1942 48.1591C43.9689 48.2254 43.7137 48.2884 43.4286 48.348C43.1436 48.401 42.8585 48.4508 42.5735 48.4972C42.2885 48.5369 42.0299 48.5734 41.7979 48.6065C41.3008 48.6795 40.8666 48.7955 40.4954 48.9545C40.1242 49.1136 39.8358 49.3291 39.6303 49.6009C39.4248 49.866 39.3221 50.1974 39.3221 50.5952C39.3221 51.1719 39.5309 51.6127 39.9485 51.9176C40.3728 52.2159 40.9097 52.3651 41.5593 52.3651ZM57.8612 55.2486C56.7011 55.2486 55.6504 54.9503 54.7092 54.3537C53.7745 53.7505 53.0321 52.8655 52.4819 51.6989C51.9383 50.5256 51.6665 49.0871 51.6665 47.3835C51.6665 45.6335 51.9483 44.1785 52.5117 43.0185C53.0752 41.8518 53.8242 40.9801 54.7589 40.4034C55.7002 39.8201 56.7309 39.5284 57.8512 39.5284C58.7063 39.5284 59.4189 39.6742 59.989 39.9659C60.5657 40.2509 61.0297 40.6089 61.381 41.0398C61.739 41.464 62.0108 41.8816 62.1964 42.2926H62.3256V34.6364H66.5515V55H62.3754V52.554H62.1964C61.9975 52.9782 61.7158 53.3991 61.3512 53.8168C60.9933 54.2277 60.5259 54.5691 59.9492 54.8409C59.3791 55.1127 58.6831 55.2486 57.8612 55.2486ZM59.2035 51.8778C59.8862 51.8778 60.4629 51.6922 60.9336 51.321C61.4109 50.9432 61.7754 50.4162 62.0273 49.7401C62.2859 49.0639 62.4151 48.2718 62.4151 47.3636C62.4151 46.4555 62.2892 45.6667 62.0373 44.9972C61.7854 44.3277 61.4208 43.8106 60.9435 43.446C60.4663 43.0814 59.8862 42.8991 59.2035 42.8991C58.5075 42.8991 57.9208 43.0881 57.4435 43.4659C56.9663 43.8437 56.605 44.3674 56.3597 45.0369C56.1145 45.7064 55.9918 46.482 55.9918 47.3636C55.9918 48.2519 56.1145 49.0374 56.3597 49.7202C56.6116 50.3963 56.9729 50.9266 57.4435 51.3111C57.9208 51.6889 58.5075 51.8778 59.2035 51.8778ZM81.1605 40.4929C81.081 39.6908 80.7396 39.0677 80.1364 38.6236C79.5331 38.1794 78.7145 37.9574 77.6804 37.9574C76.9777 37.9574 76.3845 38.0568 75.9006 38.2557C75.4167 38.4479 75.0455 38.7164 74.7869 39.0611C74.535 39.4058 74.4091 39.7969 74.4091 40.2344C74.3958 40.599 74.4721 40.9171 74.6378 41.1889C74.8101 41.4607 75.0455 41.696 75.3438 41.8949C75.642 42.0871 75.9867 42.2562 76.3778 42.402C76.7689 42.5412 77.1866 42.6605 77.6307 42.7599L79.4602 43.1974C80.3485 43.3963 81.1638 43.6615 81.9062 43.9929C82.6487 44.3243 83.2917 44.732 83.8352 45.2159C84.3788 45.6998 84.7997 46.2699 85.098 46.9261C85.4029 47.5824 85.5587 48.3348 85.5653 49.1832C85.5587 50.4295 85.2405 51.5099 84.6108 52.4247C83.9877 53.3329 83.0862 54.0388 81.9062 54.5426C80.733 55.0398 79.3177 55.2884 77.6605 55.2884C76.0166 55.2884 74.5848 55.0365 73.3651 54.5327C72.152 54.0289 71.2041 53.2831 70.5213 52.2955C69.8452 51.3011 69.4905 50.0715 69.4574 48.6065H73.6236C73.67 49.2893 73.8655 49.8594 74.2102 50.3168C74.5616 50.7675 75.0289 51.1089 75.6122 51.3409C76.2022 51.5663 76.8684 51.679 77.6108 51.679C78.34 51.679 78.973 51.5729 79.5099 51.3608C80.0535 51.1487 80.4744 50.8537 80.7727 50.4759C81.071 50.098 81.2202 49.6638 81.2202 49.1733C81.2202 48.7159 81.0843 48.3314 80.8125 48.0199C80.5473 47.7083 80.1563 47.4432 79.6392 47.2244C79.1288 47.0057 78.5024 46.8068 77.7599 46.6278L75.5426 46.071C73.8258 45.6534 72.4702 45.0005 71.4759 44.1122C70.4815 43.224 69.9877 42.0275 69.9943 40.5227C69.9877 39.2898 70.3158 38.2126 70.9787 37.2912C71.6482 36.3698 72.5663 35.6506 73.733 35.1335C74.8996 34.6165 76.2254 34.358 77.7102 34.358C79.2216 34.358 80.5407 34.6165 81.6676 35.1335C82.8011 35.6506 83.6828 36.3698 84.3125 37.2912C84.9422 38.2126 85.267 39.2798 85.2869 40.4929H81.1605ZM92.7369 55.2884C91.7624 55.2884 90.8941 55.1193 90.1317 54.7812C89.3694 54.4366 88.7662 53.9295 88.3221 53.2599C87.8846 52.5838 87.6658 51.742 87.6658 50.7344C87.6658 49.8859 87.8216 49.1733 88.1332 48.5966C88.4447 48.0199 88.869 47.5559 89.4059 47.2045C89.9428 46.8532 90.5527 46.5881 91.2354 46.4091C91.9248 46.2301 92.6474 46.1042 93.4031 46.0312C94.2913 45.9384 95.0072 45.8523 95.5508 45.7727C96.0943 45.6866 96.4888 45.5606 96.734 45.3949C96.9793 45.2292 97.1019 44.9839 97.1019 44.6591V44.5994C97.1019 43.9697 96.9031 43.4825 96.5053 43.1378C96.1142 42.7931 95.5574 42.6207 94.8349 42.6207C94.0726 42.6207 93.466 42.7898 93.0153 43.1278C92.5645 43.4593 92.2662 43.8769 92.1204 44.3807L88.2028 44.0625C88.4016 43.1345 88.7927 42.3324 89.3761 41.6562C89.9594 40.9735 90.7118 40.4498 91.6332 40.0852C92.5612 39.714 93.6351 39.5284 94.8548 39.5284C95.7032 39.5284 96.5153 39.6278 97.2908 39.8267C98.073 40.0256 98.7657 40.3338 99.369 40.7514C99.9788 41.169 100.459 41.706 100.811 42.3622C101.162 43.0118 101.338 43.7907 101.338 44.6989V55H97.3207V52.8821H97.2013C96.9561 53.3594 96.628 53.7803 96.217 54.1449C95.806 54.5028 95.3121 54.7846 94.7354 54.9901C94.1587 55.1889 93.4925 55.2884 92.7369 55.2884ZM93.9499 52.3651C94.573 52.3651 95.1232 52.2424 95.6005 51.9972C96.0778 51.7453 96.4523 51.4072 96.7241 50.983C96.9959 50.5587 97.1317 50.0781 97.1317 49.5412V47.9205C96.9992 48.0066 96.8169 48.0862 96.5849 48.1591C96.3595 48.2254 96.1043 48.2884 95.8192 48.348C95.5342 48.401 95.2492 48.4508 94.9641 48.4972C94.6791 48.5369 94.4206 48.5734 94.1886 48.6065C93.6914 48.6795 93.2572 48.7955 92.886 48.9545C92.5148 49.1136 92.2264 49.3291 92.021 49.6009C91.8155 49.866 91.7127 50.1974 91.7127 50.5952C91.7127 51.1719 91.9215 51.6127 92.3391 51.9176C92.7634 52.2159 93.3003 52.3651 93.9499 52.3651ZM112.837 39.7273V42.9091H103.411V39.7273H112.837ZM105.569 55V38.6236C105.569 37.5166 105.784 36.5985 106.215 35.8693C106.652 35.1402 107.249 34.5933 108.005 34.2287C108.76 33.8641 109.619 33.6818 110.58 33.6818C111.23 33.6818 111.823 33.7315 112.36 33.831C112.903 33.9304 113.308 34.0199 113.573 34.0994L112.817 37.2812C112.651 37.2282 112.446 37.1785 112.201 37.1321C111.962 37.0857 111.717 37.0625 111.465 37.0625C110.842 37.0625 110.408 37.2083 110.162 37.5C109.917 37.785 109.794 38.1861 109.794 38.7031V55H105.569ZM121.838 55.2983C120.267 55.2983 118.915 54.9801 117.781 54.3438C116.654 53.7008 115.786 52.7926 115.176 51.6193C114.566 50.4394 114.261 49.044 114.261 47.4332C114.261 45.8622 114.566 44.4834 115.176 43.2969C115.786 42.1103 116.644 41.1856 117.751 40.5227C118.865 39.8598 120.171 39.5284 121.669 39.5284C122.677 39.5284 123.615 39.6908 124.483 40.0156C125.358 40.3338 126.12 40.8144 126.77 41.4574C127.426 42.1004 127.937 42.9091 128.301 43.8835C128.666 44.8513 128.848 45.9848 128.848 47.2841V48.4474H115.952V45.8224H124.861C124.861 45.2126 124.728 44.6723 124.463 44.2017C124.198 43.7311 123.83 43.3632 123.359 43.098C122.895 42.8262 122.355 42.6903 121.739 42.6903C121.096 42.6903 120.526 42.8395 120.028 43.1378C119.538 43.4295 119.153 43.8239 118.875 44.321C118.597 44.8116 118.454 45.3584 118.447 45.9616V48.4574C118.447 49.2131 118.587 49.866 118.865 50.4162C119.15 50.9664 119.551 51.3906 120.068 51.6889C120.585 51.9872 121.198 52.1364 121.908 52.1364C122.378 52.1364 122.809 52.0701 123.2 51.9375C123.591 51.8049 123.926 51.6061 124.205 51.3409C124.483 51.0758 124.695 50.7509 124.841 50.3665L128.759 50.625C128.56 51.5663 128.152 52.3883 127.536 53.0909C126.926 53.7869 126.137 54.3305 125.169 54.7216C124.208 55.1061 123.098 55.2983 121.838 55.2983Z" fill="#FFD600"/>
</svg>
