<svg width="168" height="23" viewBox="0 0 168 23" fill="none" xmlns="http://www.w3.org/2000/svg">
<path d="M7.98864 22H0.769886V1.63636H8.0483C10.0966 1.63636 11.8598 2.04403 13.3381 2.85938C14.8163 3.66809 15.9531 4.83144 16.7486 6.34943C17.5507 7.86742 17.9517 9.68371 17.9517 11.7983C17.9517 13.9195 17.5507 15.7424 16.7486 17.267C15.9531 18.7917 14.8097 19.9616 13.3182 20.777C11.8333 21.5923 10.0568 22 7.98864 22ZM5.07528 18.3111H7.80966C9.08239 18.3111 10.1529 18.0857 11.0213 17.6349C11.8963 17.1776 12.5526 16.4716 12.9901 15.517C13.4342 14.5559 13.6562 13.3163 13.6562 11.7983C13.6562 10.2936 13.4342 9.06392 12.9901 8.10938C12.5526 7.15483 11.8996 6.45218 11.0312 6.00142C10.1629 5.55066 9.09233 5.32528 7.8196 5.32528H5.07528V18.3111ZM20.9222 22V19.4446L31.0842 5.18608H20.9023V1.63636H36.4933V4.19176L26.3214 18.4503H36.5131V22H20.9222Z" fill="black"/>
<path d="M39.8168 22V1.63636H47.8509C49.3887 1.63636 50.7012 1.91146 51.7884 2.46165C52.8821 3.00521 53.714 3.77746 54.2841 4.77841C54.8608 5.77273 55.1491 6.94271 55.1491 8.28835C55.1491 9.64062 54.8575 10.804 54.2741 11.7784C53.6908 12.7462 52.8456 13.4886 51.7386 14.0057C50.6383 14.5227 49.3059 14.7812 47.7415 14.7812H42.3622V11.321H47.0455C47.8674 11.321 48.5502 11.2083 49.0938 10.983C49.6373 10.7576 50.0417 10.4195 50.3068 9.96875C50.5786 9.51799 50.7145 8.95786 50.7145 8.28835C50.7145 7.61222 50.5786 7.04214 50.3068 6.57812C50.0417 6.11411 49.634 5.76278 49.0838 5.52415C48.5402 5.27888 47.8542 5.15625 47.0256 5.15625H44.1222V22H39.8168ZM50.8139 12.733L55.875 22H51.1222L46.1705 12.733H50.8139ZM64.7667 22.2983C63.2222 22.2983 61.8865 21.9702 60.7596 21.3139C59.6393 20.651 58.7743 19.7296 58.1644 18.5497C57.5546 17.3632 57.2496 15.9877 57.2496 14.4233C57.2496 12.8456 57.5546 11.4669 58.1644 10.2869C58.7743 9.10038 59.6393 8.17898 60.7596 7.52273C61.8865 6.85985 63.2222 6.52841 64.7667 6.52841C66.3112 6.52841 67.6436 6.85985 68.7638 7.52273C69.8907 8.17898 70.7591 9.10038 71.369 10.2869C71.9788 11.4669 72.2837 12.8456 72.2837 14.4233C72.2837 15.9877 71.9788 17.3632 71.369 18.5497C70.7591 19.7296 69.8907 20.651 68.7638 21.3139C67.6436 21.9702 66.3112 22.2983 64.7667 22.2983ZM64.7866 19.017C65.4892 19.017 66.0759 18.8182 66.5465 18.4205C67.0172 18.0161 67.3718 17.4659 67.6104 16.7699C67.8557 16.0739 67.9783 15.2817 67.9783 14.3935C67.9783 13.5052 67.8557 12.7131 67.6104 12.017C67.3718 11.321 67.0172 10.7708 66.5465 10.3665C66.0759 9.96212 65.4892 9.75994 64.7866 9.75994C64.0773 9.75994 63.4807 9.96212 62.9968 10.3665C62.5195 10.7708 62.1583 11.321 61.913 12.017C61.6744 12.7131 61.555 13.5052 61.555 14.3935C61.555 15.2817 61.6744 16.0739 61.913 16.7699C62.1583 17.4659 62.5195 18.0161 62.9968 18.4205C63.4807 18.8182 64.0773 19.017 64.7866 19.017ZM79.3931 22.2884C78.4187 22.2884 77.5503 22.1193 76.788 21.7812C76.0257 21.4366 75.4225 20.9295 74.9783 20.2599C74.5408 19.5838 74.3221 18.742 74.3221 17.7344C74.3221 16.8859 74.4779 16.1733 74.7894 15.5966C75.101 15.0199 75.5252 14.5559 76.0621 14.2045C76.5991 13.8532 77.2089 13.5881 77.8917 13.4091C78.5811 13.2301 79.3036 13.1042 80.0593 13.0312C80.9476 12.9384 81.6635 12.8523 82.207 12.7727C82.7506 12.6866 83.145 12.5606 83.3903 12.3949C83.6355 12.2292 83.7582 11.9839 83.7582 11.6591V11.5994C83.7582 10.9697 83.5593 10.4825 83.1616 10.1378C82.7705 9.79309 82.2137 9.62074 81.4911 9.62074C80.7288 9.62074 80.1223 9.78977 79.6715 10.1278C79.2208 10.4593 78.9225 10.8769 78.7766 11.3807L74.859 11.0625C75.0579 10.1345 75.449 9.33239 76.0323 8.65625C76.6156 7.97348 77.368 7.44981 78.2894 7.08523C79.2174 6.71401 80.2913 6.52841 81.511 6.52841C82.3595 6.52841 83.1715 6.62784 83.9471 6.8267C84.7293 7.02557 85.422 7.33381 86.0252 7.75142C86.6351 8.16903 87.1156 8.70597 87.467 9.36222C87.8183 10.0118 87.994 10.7907 87.994 11.6989V22H83.9769V19.8821H83.8576C83.6123 20.3594 83.2842 20.7803 82.8732 21.1449C82.4622 21.5028 81.9684 21.7846 81.3917 21.9901C80.815 22.1889 80.1488 22.2884 79.3931 22.2884ZM80.6062 19.3651C81.2293 19.3651 81.7795 19.2424 82.2567 18.9972C82.734 18.7453 83.1085 18.4072 83.3803 17.983C83.6521 17.5587 83.788 17.0781 83.788 16.5412V14.9205C83.6554 15.0066 83.4731 15.0862 83.2411 15.1591C83.0157 15.2254 82.7605 15.2884 82.4755 15.348C82.1905 15.401 81.9054 15.4508 81.6204 15.4972C81.3353 15.5369 81.0768 15.5734 80.8448 15.6065C80.3477 15.6795 79.9135 15.7955 79.5423 15.9545C79.171 16.1136 78.8827 16.3291 78.6772 16.6009C78.4717 16.866 78.369 17.1974 78.369 17.5952C78.369 18.1719 78.5778 18.6127 78.9954 18.9176C79.4196 19.2159 79.9566 19.3651 80.6062 19.3651ZM96.908 22.2486C95.748 22.2486 94.6973 21.9503 93.756 21.3537C92.8214 20.7505 92.079 19.8655 91.5288 18.6989C90.9852 17.5256 90.7134 16.0871 90.7134 14.3835C90.7134 12.6335 90.9951 11.1785 91.5586 10.0185C92.122 8.8518 92.8711 7.98011 93.8058 7.40341C94.747 6.82008 95.7778 6.52841 96.8981 6.52841C97.7532 6.52841 98.4658 6.67424 99.0359 6.96591C99.6126 7.25095 100.077 7.6089 100.428 8.03977C100.786 8.46401 101.058 8.88163 101.243 9.29261H101.373V1.63636H105.598V22H101.422V19.554H101.243C101.044 19.9782 100.763 20.3991 100.398 20.8168C100.04 21.2277 99.5728 21.5691 98.9961 21.8409C98.426 22.1127 97.73 22.2486 96.908 22.2486ZM98.2504 18.8778C98.9331 18.8778 99.5098 18.6922 99.9805 18.321C100.458 17.9432 100.822 17.4162 101.074 16.7401C101.333 16.0639 101.462 15.2718 101.462 14.3636C101.462 13.4555 101.336 12.6667 101.084 11.9972C100.832 11.3277 100.468 10.8106 99.9904 10.446C99.5131 10.0814 98.9331 9.89915 98.2504 9.89915C97.5543 9.89915 96.9677 10.0881 96.4904 10.4659C96.0131 10.8437 95.6519 11.3674 95.4066 12.0369C95.1613 12.7064 95.0387 13.482 95.0387 14.3636C95.0387 15.2519 95.1613 16.0374 95.4066 16.7202C95.6585 17.3963 96.0198 17.9266 96.4904 18.3111C96.9677 18.6889 97.5543 18.8778 98.2504 18.8778ZM120.207 7.4929C120.128 6.69081 119.786 6.06771 119.183 5.62358C118.58 5.17945 117.761 4.95739 116.727 4.95739C116.025 4.95739 115.431 5.05682 114.947 5.25568C114.464 5.44792 114.092 5.71638 113.834 6.06108C113.582 6.40578 113.456 6.79688 113.456 7.23438C113.443 7.59896 113.519 7.91714 113.685 8.18892C113.857 8.4607 114.092 8.69602 114.391 8.89489C114.689 9.08712 115.034 9.25615 115.425 9.40199C115.816 9.54119 116.233 9.66051 116.678 9.75994L118.507 10.1974C119.395 10.3963 120.211 10.6615 120.953 10.9929C121.696 11.3243 122.339 11.732 122.882 12.2159C123.426 12.6998 123.847 13.2699 124.145 13.9261C124.45 14.5824 124.606 15.3348 124.612 16.1832C124.606 17.4295 124.287 18.5099 123.658 19.4247C123.035 20.3329 122.133 21.0388 120.953 21.5426C119.78 22.0398 118.365 22.2884 116.707 22.2884C115.063 22.2884 113.632 22.0365 112.412 21.5327C111.199 21.0289 110.251 20.2831 109.568 19.2955C108.892 18.3011 108.537 17.0715 108.504 15.6065H112.67C112.717 16.2893 112.912 16.8594 113.257 17.3168C113.608 17.7675 114.076 18.1089 114.659 18.3409C115.249 18.5663 115.915 18.679 116.658 18.679C117.387 18.679 118.02 18.5729 118.557 18.3608C119.1 18.1487 119.521 17.8537 119.82 17.4759C120.118 17.098 120.267 16.6638 120.267 16.1733C120.267 15.7159 120.131 15.3314 119.859 15.0199C119.594 14.7083 119.203 14.4432 118.686 14.2244C118.176 14.0057 117.549 13.8068 116.807 13.6278L114.589 13.071C112.873 12.6534 111.517 12.0005 110.523 11.1122C109.528 10.224 109.035 9.02746 109.041 7.52273C109.035 6.28977 109.363 5.21259 110.026 4.29119C110.695 3.36979 111.613 2.65057 112.78 2.13352C113.946 1.61648 115.272 1.35795 116.757 1.35795C118.268 1.35795 119.588 1.61648 120.714 2.13352C121.848 2.65057 122.73 3.36979 123.359 4.29119C123.989 5.21259 124.314 6.27983 124.334 7.4929H120.207ZM131.784 22.2884C130.809 22.2884 129.941 22.1193 129.179 21.7812C128.416 21.4366 127.813 20.9295 127.369 20.2599C126.931 19.5838 126.713 18.742 126.713 17.7344C126.713 16.8859 126.868 16.1733 127.18 15.5966C127.492 15.0199 127.916 14.5559 128.453 14.2045C128.99 13.8532 129.6 13.5881 130.282 13.4091C130.972 13.2301 131.694 13.1042 132.45 13.0312C133.338 12.9384 134.054 12.8523 134.598 12.7727C135.141 12.6866 135.536 12.5606 135.781 12.3949C136.026 12.2292 136.149 11.9839 136.149 11.6591V11.5994C136.149 10.9697 135.95 10.4825 135.552 10.1378C135.161 9.79309 134.604 9.62074 133.882 9.62074C133.119 9.62074 132.513 9.78977 132.062 10.1278C131.611 10.4593 131.313 10.8769 131.167 11.3807L127.25 11.0625C127.449 10.1345 127.84 9.33239 128.423 8.65625C129.006 7.97348 129.759 7.44981 130.68 7.08523C131.608 6.71401 132.682 6.52841 133.902 6.52841C134.75 6.52841 135.562 6.62784 136.338 6.8267C137.12 7.02557 137.813 7.33381 138.416 7.75142C139.026 8.16903 139.506 8.70597 139.858 9.36222C140.209 10.0118 140.385 10.7907 140.385 11.6989V22H136.368V19.8821H136.248C136.003 20.3594 135.675 20.7803 135.264 21.1449C134.853 21.5028 134.359 21.7846 133.782 21.9901C133.206 22.1889 132.539 22.2884 131.784 22.2884ZM132.997 19.3651C133.62 19.3651 134.17 19.2424 134.647 18.9972C135.125 18.7453 135.499 18.4072 135.771 17.983C136.043 17.5587 136.179 17.0781 136.179 16.5412V14.9205C136.046 15.0066 135.864 15.0862 135.632 15.1591C135.406 15.2254 135.151 15.2884 134.866 15.348C134.581 15.401 134.296 15.4508 134.011 15.4972C133.726 15.5369 133.467 15.5734 133.235 15.6065C132.738 15.6795 132.304 15.7955 131.933 15.9545C131.562 16.1136 131.273 16.3291 131.068 16.6009C130.862 16.866 130.76 17.1974 130.76 17.5952C130.76 18.1719 130.968 18.6127 131.386 18.9176C131.81 19.2159 132.347 19.3651 132.997 19.3651ZM151.884 6.72727V9.90909H142.458V6.72727H151.884ZM144.615 22V5.62358C144.615 4.51657 144.831 3.59848 145.262 2.86932C145.699 2.14015 146.296 1.59328 147.051 1.22869C147.807 0.864108 148.666 0.681817 149.627 0.681817C150.276 0.681817 150.87 0.731533 151.407 0.830966C151.95 0.930397 152.355 1.01989 152.62 1.09943L151.864 4.28125C151.698 4.22822 151.493 4.1785 151.248 4.1321C151.009 4.0857 150.764 4.0625 150.512 4.0625C149.889 4.0625 149.454 4.20833 149.209 4.5C148.964 4.78504 148.841 5.18608 148.841 5.70312V22H144.615ZM160.885 22.2983C159.314 22.2983 157.962 21.9801 156.828 21.3438C155.701 20.7008 154.833 19.7926 154.223 18.6193C153.613 17.4394 153.308 16.044 153.308 14.4332C153.308 12.8622 153.613 11.4834 154.223 10.2969C154.833 9.11032 155.691 8.18561 156.798 7.52273C157.912 6.85985 159.218 6.52841 160.716 6.52841C161.723 6.52841 162.661 6.69081 163.53 7.01562C164.405 7.33381 165.167 7.81439 165.817 8.45739C166.473 9.10038 166.983 9.90909 167.348 10.8835C167.713 11.8513 167.895 12.9848 167.895 14.2841V15.4474H154.999V12.8224H163.908C163.908 12.2126 163.775 11.6723 163.51 11.2017C163.245 10.7311 162.877 10.3632 162.406 10.098C161.942 9.82623 161.402 9.69034 160.786 9.69034C160.143 9.69034 159.572 9.83949 159.075 10.1378C158.585 10.4295 158.2 10.8239 157.922 11.321C157.643 11.8116 157.501 12.3584 157.494 12.9616V15.4574C157.494 16.2131 157.634 16.866 157.912 17.4162C158.197 17.9664 158.598 18.3906 159.115 18.6889C159.632 18.9872 160.245 19.1364 160.955 19.1364C161.425 19.1364 161.856 19.0701 162.247 18.9375C162.638 18.8049 162.973 18.6061 163.251 18.3409C163.53 18.0758 163.742 17.7509 163.888 17.3665L167.805 17.625C167.607 18.5663 167.199 19.3883 166.582 20.0909C165.973 20.7869 165.184 21.3305 164.216 21.7216C163.255 22.1061 162.144 22.2983 160.885 22.2983Z" fill="#FFD600"/>
</svg>
