<svg width="188" height="64" viewBox="0 0 188 64" fill="none" xmlns="http://www.w3.org/2000/svg">
<rect x="141.411" y="22.7794" width="29.6531" height="8.26896" rx="4.13448" transform="rotate(-50.1923 141.411 22.7794)" fill="#FFD600"/>
<rect x="146.186" y="33.6944" width="29.6531" height="8.26896" rx="4.13448" transform="rotate(-50.1923 146.186 33.6944)" fill="white"/>
<path d="M1.76989 49V28.6364H9.9233C11.4214 28.6364 12.6709 28.8584 13.6719 29.3026C14.6728 29.7467 15.4252 30.3632 15.929 31.152C16.4328 31.9342 16.6847 32.8357 16.6847 33.8565C16.6847 34.652 16.5256 35.3513 16.2074 35.9545C15.8892 36.5511 15.4517 37.0417 14.8949 37.4261C14.3447 37.804 13.715 38.0724 13.0057 38.2315V38.4304C13.7813 38.4635 14.5071 38.6823 15.1832 39.0866C15.866 39.491 16.4195 40.0578 16.8438 40.7869C17.268 41.5095 17.4801 42.3712 17.4801 43.3722C17.4801 44.4527 17.2116 45.4171 16.6747 46.2656C16.1444 47.1075 15.3589 47.7737 14.3182 48.2642C13.2775 48.7547 11.9948 49 10.4702 49H1.76989ZM6.07528 45.4801H9.58523C10.785 45.4801 11.66 45.2514 12.2102 44.794C12.7604 44.33 13.0355 43.7135 13.0355 42.9446C13.0355 42.3812 12.8996 41.884 12.6278 41.4531C12.3561 41.0223 11.9683 40.6842 11.4645 40.4389C10.9673 40.1937 10.3741 40.071 9.68466 40.071H6.07528V45.4801ZM6.07528 37.1577H9.26705C9.85701 37.1577 10.3807 37.0549 10.8381 36.8494C11.3021 36.6373 11.6667 36.339 11.9318 35.9545C12.2036 35.5701 12.3395 35.1094 12.3395 34.5724C12.3395 33.8366 12.0777 33.2434 11.554 32.7926C11.0369 32.3419 10.3011 32.1165 9.34659 32.1165H6.07528V37.1577ZM31.3285 34.4929C31.2489 33.6908 30.9076 33.0677 30.3043 32.6236C29.7011 32.1794 28.8825 31.9574 27.8484 31.9574C27.1457 31.9574 26.5524 32.0568 26.0685 32.2557C25.5846 32.4479 25.2134 32.7164 24.9549 33.0611C24.703 33.4058 24.5771 33.7969 24.5771 34.2344C24.5638 34.599 24.64 34.9171 24.8058 35.1889C24.9781 35.4607 25.2134 35.696 25.5117 35.8949C25.81 36.0871 26.1547 36.2562 26.5458 36.402C26.9369 36.5412 27.3545 36.6605 27.7987 36.7599L29.6282 37.1974C30.5165 37.3963 31.3318 37.6615 32.0742 37.9929C32.8166 38.3243 33.4596 38.732 34.0032 39.2159C34.5468 39.6998 34.9677 40.2699 35.266 40.9261C35.5709 41.5824 35.7267 42.3348 35.7333 43.1832C35.7267 44.4295 35.4085 45.5099 34.7788 46.4247C34.1557 47.3329 33.2541 48.0388 32.0742 48.5426C30.9009 49.0398 29.4857 49.2884 27.8285 49.2884C26.1845 49.2884 24.7527 49.0365 23.533 48.5327C22.32 48.0289 21.372 47.2831 20.6893 46.2955C20.0131 45.3011 19.6585 44.0715 19.6254 42.6065H23.7915C23.8379 43.2893 24.0335 43.8594 24.3782 44.3168C24.7295 44.7675 25.1969 45.1089 25.7802 45.3409C26.3701 45.5663 27.0363 45.679 27.7788 45.679C28.5079 45.679 29.141 45.5729 29.6779 45.3608C30.2215 45.1487 30.6424 44.8537 30.9407 44.4759C31.239 44.098 31.3881 43.6638 31.3881 43.1733C31.3881 42.7159 31.2522 42.3314 30.9805 42.0199C30.7153 41.7083 30.3242 41.4432 29.8072 41.2244C29.2968 41.0057 28.6703 40.8068 27.9279 40.6278L25.7106 40.071C23.9937 39.6534 22.6381 39.0005 21.6438 38.1122C20.6495 37.224 20.1557 36.0275 20.1623 34.5227C20.1557 33.2898 20.4838 32.2126 21.1467 31.2912C21.8162 30.3698 22.7343 29.6506 23.9009 29.1335C25.0676 28.6165 26.3933 28.358 27.8782 28.358C29.3896 28.358 30.7087 28.6165 31.8356 29.1335C32.9691 29.6506 33.8507 30.3698 34.4805 31.2912C35.1102 32.2126 35.435 33.2798 35.4549 34.4929H31.3285Z" fill="#FFD600"/>
<path d="M37.8537 32.1861V28.6364H54.5781V32.1861H48.3438V49H44.0881V32.1861H37.8537ZM55.6669 49V33.7273H59.7734V36.392H59.9325C60.2109 35.4441 60.6783 34.7282 61.3345 34.2443C61.9908 33.7538 62.7464 33.5085 63.6016 33.5085C63.8137 33.5085 64.0424 33.5218 64.2876 33.5483C64.5329 33.5748 64.7483 33.6113 64.9339 33.6577V37.4162C64.7351 37.3565 64.46 37.3035 64.1087 37.2571C63.7573 37.2107 63.4358 37.1875 63.1442 37.1875C62.5211 37.1875 61.9643 37.3234 61.4737 37.5952C60.9898 37.8603 60.6054 38.2315 60.3203 38.7088C60.0419 39.1861 59.9027 39.7363 59.9027 40.3594V49H55.6669ZM71.0415 49.2884C70.0671 49.2884 69.1987 49.1193 68.4364 48.7812C67.6741 48.4366 67.0709 47.9295 66.6268 47.2599C66.1893 46.5838 65.9705 45.742 65.9705 44.7344C65.9705 43.8859 66.1263 43.1733 66.4379 42.5966C66.7494 42.0199 67.1737 41.5559 67.7106 41.2045C68.2475 40.8532 68.8574 40.5881 69.5401 40.4091C70.2295 40.2301 70.9521 40.1042 71.7077 40.0312C72.596 39.9384 73.3119 39.8523 73.8555 39.7727C74.399 39.6866 74.7934 39.5606 75.0387 39.3949C75.284 39.2292 75.4066 38.9839 75.4066 38.6591V38.5994C75.4066 37.9697 75.2077 37.4825 74.81 37.1378C74.4189 36.7931 73.8621 36.6207 73.1396 36.6207C72.3772 36.6207 71.7707 36.7898 71.32 37.1278C70.8692 37.4593 70.5709 37.8769 70.4251 38.3807L66.5075 38.0625C66.7063 37.1345 67.0974 36.3324 67.6808 35.6562C68.2641 34.9735 69.0165 34.4498 69.9379 34.0852C70.8659 33.714 71.9397 33.5284 73.1594 33.5284C74.0079 33.5284 74.82 33.6278 75.5955 33.8267C76.3777 34.0256 77.0704 34.3338 77.6737 34.7514C78.2835 35.169 78.7641 35.706 79.1154 36.3622C79.4667 37.0118 79.6424 37.7907 79.6424 38.6989V49H75.6254V46.8821H75.506C75.2608 47.3594 74.9326 47.7803 74.5217 48.1449C74.1107 48.5028 73.6168 48.7846 73.0401 48.9901C72.4634 49.1889 71.7972 49.2884 71.0415 49.2884ZM72.2546 46.3651C72.8777 46.3651 73.4279 46.2424 73.9052 45.9972C74.3825 45.7453 74.757 45.4072 75.0288 44.983C75.3005 44.5587 75.4364 44.0781 75.4364 43.5412V41.9205C75.3039 42.0066 75.1216 42.0862 74.8896 42.1591C74.6642 42.2254 74.409 42.2884 74.1239 42.348C73.8389 42.401 73.5539 42.4508 73.2688 42.4972C72.9838 42.5369 72.7253 42.5734 72.4933 42.6065C71.9961 42.6795 71.5619 42.7955 71.1907 42.9545C70.8195 43.1136 70.5311 43.3291 70.3256 43.6009C70.1201 43.866 70.0174 44.1974 70.0174 44.5952C70.0174 45.1719 70.2262 45.6127 70.6438 45.9176C71.0681 46.2159 71.605 46.3651 72.2546 46.3651ZM89.8292 49.2983C88.2648 49.2983 86.9192 48.9669 85.7923 48.304C84.672 47.6345 83.8103 46.7064 83.207 45.5199C82.6104 44.3333 82.3121 42.9678 82.3121 41.4233C82.3121 39.8589 82.6138 38.4867 83.217 37.3068C83.8268 36.1203 84.6919 35.1955 85.8121 34.5327C86.9324 33.8632 88.2648 33.5284 89.8093 33.5284C91.1417 33.5284 92.3084 33.7704 93.3093 34.2543C94.3103 34.7382 95.1024 35.4176 95.6857 36.2926C96.2691 37.1676 96.5906 38.1951 96.6502 39.375H92.6531C92.5404 38.6127 92.2421 37.9995 91.7582 37.5355C91.2809 37.0649 90.6545 36.8295 89.8789 36.8295C89.2227 36.8295 88.6493 37.0085 88.1587 37.3665C87.6748 37.7178 87.297 38.2315 87.0252 38.9077C86.7534 39.5838 86.6175 40.4025 86.6175 41.3636C86.6175 42.3381 86.7501 43.1667 87.0153 43.8494C87.2871 44.5322 87.6682 45.0526 88.1587 45.4105C88.6493 45.7685 89.2227 45.9474 89.8789 45.9474C90.3628 45.9474 90.797 45.848 91.1815 45.6491C91.5726 45.4503 91.8941 45.1619 92.146 44.7841C92.4045 44.3996 92.5735 43.9389 92.6531 43.402H96.6502C96.5839 44.5687 96.2657 45.5961 95.6957 46.4844C95.1322 47.366 94.3533 48.0554 93.359 48.5526C92.3647 49.0497 91.1881 49.2983 89.8292 49.2983ZM103.2 44.6051L103.21 39.5241H103.827L108.719 33.7273H113.581L107.009 41.4034H106.004L103.2 44.6051ZM99.3622 49V28.6364H103.598V49H99.3622ZM108.908 49L104.413 42.348L107.237 39.3551L113.869 49H108.908ZM121.99 49.2983C120.419 49.2983 119.067 48.9801 117.934 48.3438C116.807 47.7008 115.938 46.7926 115.328 45.6193C114.719 44.4394 114.414 43.044 114.414 41.4332C114.414 39.8622 114.719 38.4834 115.328 37.2969C115.938 36.1103 116.797 35.1856 117.904 34.5227C119.017 33.8598 120.323 33.5284 121.821 33.5284C122.829 33.5284 123.767 33.6908 124.635 34.0156C125.51 34.3338 126.273 34.8144 126.922 35.4574C127.578 36.1004 128.089 36.9091 128.453 37.8835C128.818 38.8513 129 39.9848 129 41.2841V42.4474H116.104V39.8224H125.013C125.013 39.2126 124.881 38.6723 124.615 38.2017C124.35 37.7311 123.982 37.3632 123.512 37.098C123.048 36.8262 122.507 36.6903 121.891 36.6903C121.248 36.6903 120.678 36.8395 120.181 37.1378C119.69 37.4295 119.306 37.8239 119.027 38.321C118.749 38.8116 118.606 39.3584 118.6 39.9616V42.4574C118.6 43.2131 118.739 43.866 119.017 44.4162C119.302 44.9664 119.703 45.3906 120.221 45.6889C120.738 45.9872 121.351 46.1364 122.06 46.1364C122.531 46.1364 122.962 46.0701 123.353 45.9375C123.744 45.8049 124.078 45.6061 124.357 45.3409C124.635 45.0758 124.847 44.7509 124.993 44.3665L128.911 44.625C128.712 45.5663 128.304 46.3883 127.688 47.0909C127.078 47.7869 126.289 48.3305 125.321 48.7216C124.36 49.1061 123.25 49.2983 121.99 49.2983ZM131.765 49V33.7273H135.871V36.392H136.03C136.309 35.4441 136.776 34.7282 137.432 34.2443C138.088 33.7538 138.844 33.5085 139.699 33.5085C139.911 33.5085 140.14 33.5218 140.385 33.5483C140.631 33.5748 140.846 33.6113 141.032 33.6577V37.4162C140.833 37.3565 140.558 37.3035 140.206 37.2571C139.855 37.2107 139.533 37.1875 139.242 37.1875C138.619 37.1875 138.062 37.3234 137.571 37.5952C137.087 37.8603 136.703 38.2315 136.418 38.7088C136.14 39.1861 136 39.7363 136 40.3594V49H131.765Z" fill="white"/>
</svg>
